<svg id="svg" version="1.1" xmlns="http://www.w3.org/2000/svg" xmlns:xlink="http://www.w3.org/1999/xlink" width="400" height="152.57731958762886" viewBox="0, 0, 400,152.57731958762886"><g id="svgg"><path id="path0" d="M0.000 76.250 L 0.000 152.500 200.000 152.500 L 400.000 152.500 400.000 76.250 L 400.000 0.000 200.000 0.000 L 0.000 0.000 0.000 76.250 M383.346 16.654 L 383.833 17.141 383.830 75.196 C 383.826 139.185,383.915 133.621,382.886 134.147 C 382.364 134.414,17.636 134.414,17.114 134.147 C 16.085 133.621,16.174 139.185,16.170 75.196 L 16.167 17.141 16.654 16.654 L 17.141 16.167 200.000 16.167 L 382.859 16.167 383.346 16.654 M78.970 58.458 C 78.834 58.619,78.563 59.414,78.368 60.225 C 78.159 61.094,77.805 62.024,77.507 62.488 C 77.186 62.989,76.821 63.988,76.506 65.228 C 76.210 66.389,75.776 67.598,75.433 68.214 C 75.104 68.805,74.668 70.001,74.417 71.000 C 74.175 71.963,73.728 73.199,73.422 73.750 C 73.110 74.313,72.640 75.623,72.346 76.748 C 72.060 77.846,71.656 79.009,71.449 79.331 C 70.879 80.219,70.695 80.717,70.342 82.332 C 70.022 83.802,69.730 84.533,69.143 85.333 C 68.975 85.563,68.618 86.612,68.350 87.667 C 67.769 89.951,67.659 90.251,67.110 91.059 C 66.850 91.443,66.521 92.403,66.249 93.572 C 66.007 94.612,65.683 95.690,65.530 95.967 C 65.376 96.245,65.083 96.772,64.878 97.139 C 64.674 97.507,64.354 98.494,64.167 99.334 C 63.980 100.173,63.716 101.126,63.580 101.451 C 63.444 101.775,63.333 102.063,63.333 102.090 C 63.333 102.722,73.878 102.938,75.083 102.332 C 75.562 102.091,75.603 101.979,76.051 99.748 C 76.729 96.367,77.620 94.871,79.167 94.514 C 80.200 94.276,90.987 94.281,92.539 94.520 C 94.547 94.830,94.859 95.114,95.078 96.833 C 95.371 99.132,96.546 102.052,97.339 102.454 C 98.072 102.825,108.143 102.742,108.638 102.361 L 109.025 102.063 108.754 100.990 C 108.604 100.400,108.348 99.729,108.184 99.500 C 107.613 98.704,107.346 98.036,106.936 96.379 C 106.512 94.664,106.243 93.965,105.663 93.064 C 105.479 92.778,105.101 91.653,104.823 90.564 C 104.538 89.449,104.141 88.328,103.915 88.000 C 103.399 87.250,103.100 86.387,102.752 84.649 C 102.558 83.677,102.278 82.920,101.833 82.167 C 101.197 81.090,101.124 80.880,100.554 78.519 C 100.391 77.841,100.021 76.921,99.732 76.473 C 99.205 75.655,99.134 75.442,98.504 72.833 C 98.301 71.991,97.973 71.147,97.694 70.750 C 97.101 69.905,96.916 69.403,96.589 67.750 C 96.444 67.017,96.185 66.154,96.014 65.833 C 95.004 63.937,94.807 63.427,94.506 61.920 C 94.303 60.899,94.043 60.094,93.835 59.837 C 93.648 59.606,93.414 59.258,93.315 59.065 C 92.877 58.212,92.486 58.167,85.604 58.167 C 79.728 58.167,79.199 58.190,78.970 58.458 M126.276 58.351 C 125.923 58.434,125.173 58.754,124.609 59.062 C 124.045 59.370,122.881 59.799,122.023 60.014 C 120.664 60.355,120.407 60.478,120.035 60.965 C 119.801 61.272,119.248 61.706,118.807 61.930 C 118.243 62.216,117.907 62.529,117.674 62.985 C 117.492 63.342,117.089 63.848,116.778 64.109 C 116.467 64.370,116.134 64.735,116.038 64.920 C 115.853 65.274,114.642 70.536,114.641 70.987 C 114.639 71.469,115.676 75.243,115.950 75.750 C 116.647 77.043,119.484 79.756,120.518 80.117 C 120.989 80.282,121.684 80.687,122.062 81.017 C 122.851 81.705,123.318 81.876,125.468 82.260 C 126.726 82.486,127.201 82.660,127.985 83.183 C 128.986 83.851,130.239 84.156,132.021 84.163 C 133.442 84.169,135.161 84.663,135.818 85.252 C 136.147 85.548,136.803 85.985,137.276 86.223 C 138.118 86.648,139.279 87.934,139.895 89.125 C 140.458 90.214,138.658 93.500,137.498 93.500 C 137.425 93.500,137.057 93.757,136.680 94.072 C 135.092 95.399,129.727 95.387,129.216 94.055 C 129.166 93.925,128.816 93.663,128.438 93.473 C 126.399 92.446,125.583 91.255,125.009 88.467 L 124.813 87.518 123.924 87.259 C 122.017 86.705,115.168 87.161,114.360 87.896 C 113.115 89.028,113.364 92.234,114.840 94.092 C 115.112 94.434,115.423 95.009,115.531 95.371 C 115.673 95.845,116.158 96.457,117.265 97.556 C 119.883 100.158,120.478 100.667,120.909 100.667 C 121.766 100.667,123.616 101.215,124.583 101.756 C 126.636 102.904,137.868 103.084,139.583 101.997 C 140.748 101.258,141.392 100.983,142.507 100.748 C 143.903 100.455,144.182 100.320,145.146 99.476 C 145.547 99.125,146.268 98.652,146.748 98.425 C 147.395 98.119,147.680 97.869,147.845 97.464 C 147.968 97.163,148.427 96.536,148.864 96.071 C 149.664 95.221,150.024 94.550,150.423 93.167 C 150.542 92.754,150.878 91.779,151.170 91.000 C 151.828 89.245,151.815 86.532,151.145 85.264 C 150.947 84.890,150.570 83.875,150.307 83.008 C 149.887 81.623,149.735 81.342,149.040 80.675 C 148.605 80.258,148.125 79.678,147.972 79.386 C 147.772 79.004,147.501 78.797,147.004 78.648 C 146.624 78.534,145.999 78.166,145.615 77.830 C 144.688 77.018,144.478 76.921,142.917 76.580 C 141.467 76.264,140.836 75.997,140.117 75.398 C 139.515 74.895,138.827 74.723,136.583 74.516 C 134.469 74.320,133.170 73.979,132.311 73.394 C 131.897 73.112,131.160 72.883,129.978 72.670 C 127.406 72.205,126.689 71.771,125.983 70.250 C 125.414 69.023,125.548 68.507,126.819 67.026 C 127.857 65.817,128.129 65.708,130.427 65.577 C 133.390 65.409,135.310 65.814,135.993 66.750 C 136.127 66.933,136.661 67.496,137.179 68.000 C 138.047 68.843,138.137 69.002,138.307 69.982 C 138.620 71.785,138.429 71.721,143.083 71.594 C 148.490 71.447,149.194 71.244,149.749 69.671 C 150.028 68.879,149.884 68.313,149.115 67.183 C 148.841 66.780,148.480 66.012,148.313 65.477 C 147.778 63.758,147.195 63.016,145.466 61.854 C 145.034 61.565,144.584 61.192,144.466 61.025 C 144.139 60.568,143.491 60.216,142.750 60.094 C 141.452 59.880,140.349 59.492,139.854 59.075 C 138.956 58.319,137.646 58.171,132.000 58.186 C 129.204 58.194,126.628 58.268,126.276 58.351 M160.542 58.412 L 160.000 58.651 160.000 80.395 L 160.000 102.139 160.729 102.417 C 161.886 102.859,171.804 102.729,172.316 102.266 C 172.664 101.951,172.667 101.874,172.667 93.624 L 172.667 85.300 173.233 84.733 L 173.800 84.167 180.275 84.170 C 187.353 84.174,187.539 84.198,188.457 85.195 L 188.830 85.601 188.873 93.840 L 188.917 102.079 189.417 102.331 C 190.150 102.701,199.433 102.703,200.417 102.333 L 201.083 102.082 201.126 80.381 L 201.168 58.680 200.304 58.423 C 199.077 58.059,190.276 58.047,189.411 58.408 L 188.833 58.650 188.830 65.866 C 188.825 73.974,188.903 73.473,187.548 74.149 C 186.562 74.642,174.198 74.700,173.495 74.216 C 172.654 73.636,172.678 73.868,172.672 66.062 C 172.667 59.431,172.640 58.685,172.391 58.479 C 171.974 58.132,161.313 58.072,160.542 58.412 M223.304 58.458 C 223.167 58.619,222.896 59.414,222.701 60.225 C 222.492 61.094,222.139 62.024,221.841 62.488 C 221.520 62.989,221.154 63.988,220.839 65.228 C 220.544 66.389,220.110 67.598,219.766 68.214 C 219.437 68.805,219.001 70.001,218.750 71.000 C 218.508 71.963,218.061 73.199,217.756 73.750 C 217.443 74.313,216.973 75.623,216.680 76.748 C 216.393 77.846,215.990 79.009,215.782 79.331 C 215.212 80.218,215.025 80.723,214.660 82.363 C 214.326 83.861,214.054 84.545,213.477 85.333 C 213.309 85.563,212.952 86.612,212.683 87.667 C 212.102 89.951,211.992 90.251,211.444 91.059 C 211.183 91.443,210.854 92.403,210.583 93.572 C 210.341 94.612,210.017 95.690,209.863 95.967 C 209.709 96.245,209.416 96.772,209.212 97.139 C 209.007 97.507,208.687 98.494,208.500 99.334 C 208.313 100.173,208.049 101.126,207.913 101.451 C 207.778 101.775,207.667 102.063,207.667 102.090 C 207.667 102.721,218.209 102.938,219.417 102.332 C 219.876 102.102,219.940 101.958,220.202 100.582 C 220.710 97.911,220.856 97.435,221.543 96.215 C 222.587 94.358,222.296 94.427,229.333 94.360 C 238.472 94.272,239.104 94.427,239.411 96.833 C 239.704 99.132,240.879 102.052,241.672 102.454 C 242.405 102.825,252.476 102.742,252.971 102.361 L 253.359 102.063 253.087 100.990 C 252.938 100.400,252.681 99.729,252.517 99.500 C 251.946 98.704,251.679 98.036,251.269 96.379 C 250.845 94.664,250.576 93.965,249.996 93.064 C 249.812 92.778,249.434 91.653,249.156 90.564 C 248.872 89.449,248.475 88.328,248.249 88.000 C 247.732 87.250,247.433 86.387,247.086 84.649 C 246.888 83.661,246.615 82.930,246.156 82.162 C 245.696 81.391,245.366 80.507,245.025 79.130 C 244.708 77.846,244.375 76.931,244.046 76.434 C 243.546 75.678,243.469 75.449,242.837 72.833 C 242.634 71.991,242.306 71.147,242.028 70.750 C 241.434 69.905,241.249 69.403,240.922 67.750 C 240.777 67.017,240.518 66.154,240.348 65.833 C 239.337 63.937,239.141 63.427,238.840 61.920 C 238.636 60.899,238.377 60.094,238.168 59.837 C 237.981 59.606,237.747 59.258,237.648 59.065 C 237.211 58.212,236.820 58.167,229.937 58.167 C 224.061 58.167,223.532 58.190,223.304 58.458 M281.125 58.347 C 280.661 58.617,280.674 101.970,281.138 102.391 C 281.661 102.864,291.675 102.802,292.349 102.322 L 292.833 101.977 292.833 80.341 L 292.833 58.705 292.423 58.436 C 291.932 58.115,281.663 58.034,281.125 58.347 M301.442 58.471 C 301.149 58.795,301.014 66.680,301.294 67.100 C 301.637 67.614,302.209 67.667,307.447 67.669 C 313.367 67.672,314.453 67.801,315.123 68.580 L 315.500 69.019 315.500 85.572 C 315.500 100.761,315.523 102.145,315.775 102.355 C 316.307 102.796,326.488 102.772,327.053 102.328 L 327.500 101.976 327.500 85.352 L 327.500 68.729 328.011 68.240 L 328.521 67.750 334.219 67.659 C 338.807 67.585,340.047 67.517,340.583 67.309 L 341.250 67.050 341.295 62.866 L 341.339 58.681 340.473 58.424 C 339.021 57.993,301.835 58.038,301.442 58.471 M86.510 70.896 C 86.684 71.191,87.052 71.599,87.327 71.802 C 88.052 72.338,88.300 72.931,88.828 75.390 C 89.173 76.997,89.474 77.920,89.952 78.834 C 90.693 80.253,91.373 83.302,91.060 83.799 C 90.491 84.700,90.236 84.750,86.196 84.750 L 82.417 84.750 81.645 84.296 C 80.635 83.703,80.590 83.524,81.174 82.430 C 81.531 81.761,81.781 80.862,82.093 79.130 C 82.425 77.284,82.665 76.451,83.162 75.417 C 83.514 74.683,83.968 73.388,84.170 72.538 C 84.765 70.046,85.644 69.428,86.510 70.896 M230.843 70.896 C 231.017 71.191,231.394 71.605,231.680 71.817 C 232.364 72.322,232.719 73.187,233.158 75.417 C 233.416 76.727,233.727 77.678,234.247 78.750 C 235.064 80.432,235.714 83.290,235.395 83.796 C 234.824 84.701,234.572 84.750,230.529 84.750 L 226.750 84.750 225.978 84.296 C 224.973 83.705,224.924 83.522,225.489 82.463 C 225.928 81.641,226.151 80.760,226.680 77.758 C 226.795 77.101,227.124 76.146,227.440 75.552 C 227.745 74.976,228.180 73.756,228.407 72.841 C 229.108 70.008,229.931 69.350,230.843 70.896 M256.833 81.049 L 256.417 81.260 256.372 85.539 L 256.328 89.819 256.706 90.034 C 257.436 90.451,270.902 90.435,271.880 90.016 L 272.667 89.679 272.667 85.537 L 272.667 81.395 272.078 81.114 C 271.306 80.746,257.548 80.687,256.833 81.049 " stroke="none" fill="#242c6d" fill-rule="evenodd"></path><path id="path1" d="M17.276 17.305 C 16.917 17.701,16.842 132.775,17.200 133.133 C 17.492 133.425,382.508 133.425,382.800 133.133 C 383.184 132.749,383.080 17.624,382.695 17.276 C 382.196 16.824,17.685 16.853,17.276 17.305 M93.105 57.415 C 94.417 57.757,94.765 58.143,95.277 59.825 C 95.516 60.609,95.923 61.625,96.180 62.083 C 96.438 62.542,96.879 63.814,97.159 64.910 C 97.448 66.040,97.851 67.179,98.091 67.541 C 98.621 68.342,98.758 68.705,99.259 70.634 C 99.481 71.489,99.929 72.665,100.254 73.245 C 100.641 73.938,100.966 74.867,101.197 75.942 C 101.552 77.595,101.839 78.352,102.583 79.590 C 102.805 79.961,103.147 81.011,103.344 81.924 C 103.599 83.113,103.881 83.890,104.339 84.667 C 104.809 85.464,105.089 86.249,105.400 87.642 C 105.633 88.683,105.972 89.771,106.155 90.059 C 106.882 91.207,107.136 91.792,107.324 92.750 C 107.622 94.269,108.159 95.878,108.493 96.250 C 108.998 96.814,109.185 97.307,109.518 98.967 C 109.706 99.900,110.023 100.877,110.279 101.314 L 110.718 102.063 110.151 102.537 C 108.729 103.724,108.828 103.710,102.035 103.636 C 94.395 103.553,94.632 103.638,94.185 100.841 C 94.063 100.080,93.801 99.273,93.509 98.758 C 93.070 97.985,92.822 97.278,92.595 96.154 C 92.437 95.373,92.097 95.333,85.529 95.333 C 78.294 95.333,78.797 95.201,78.509 97.171 C 78.286 98.696,77.985 99.651,77.522 100.303 C 77.347 100.549,77.108 101.071,76.991 101.463 C 76.367 103.549,75.585 103.731,67.667 103.632 C 62.376 103.565,61.944 103.496,61.484 102.637 C 61.062 101.847,61.656 99.146,62.481 98.108 C 62.942 97.527,63.134 96.941,63.742 94.253 C 63.912 93.506,64.178 92.875,64.489 92.488 C 65.005 91.846,65.181 91.327,65.568 89.306 C 65.818 87.994,66.300 86.843,66.850 86.241 C 67.041 86.032,67.300 85.223,67.517 84.158 C 67.887 82.338,68.102 81.778,68.782 80.870 C 69.065 80.492,69.313 79.736,69.587 78.418 C 70.008 76.386,70.157 75.990,70.750 75.333 C 71.211 74.823,71.420 74.184,71.752 72.273 C 72.038 70.624,72.168 70.304,72.840 69.583 C 73.208 69.188,73.384 68.716,73.677 67.333 C 74.150 65.098,74.413 64.359,74.929 63.820 C 75.250 63.485,75.437 62.944,75.748 61.443 C 76.331 58.631,76.871 57.808,78.439 57.338 C 79.341 57.068,92.028 57.135,93.105 57.415 M140.167 57.559 C 140.579 57.717,141.209 58.081,141.567 58.368 C 141.960 58.683,142.677 59.013,143.379 59.201 C 144.881 59.604,145.434 59.892,146.250 60.694 C 146.617 61.054,147.217 61.516,147.583 61.721 C 148.075 61.995,148.384 62.355,148.760 63.088 C 149.041 63.635,149.542 64.477,149.874 64.958 C 150.603 66.015,151.094 67.910,151.060 69.536 C 151.002 72.359,149.858 72.747,141.910 72.637 C 136.992 72.568,136.465 72.318,135.843 69.752 C 135.608 68.781,135.472 68.592,134.621 68.055 C 134.273 67.835,133.905 67.473,133.804 67.252 C 133.545 66.683,132.858 66.500,130.986 66.500 C 128.810 66.500,128.652 66.576,128.020 67.926 L 127.498 69.043 127.858 70.063 C 128.365 71.496,128.358 71.492,130.512 71.669 C 132.781 71.855,133.944 72.171,134.599 72.782 C 135.140 73.285,136.615 73.649,138.167 73.663 C 138.671 73.667,139.485 73.778,139.976 73.908 C 140.771 74.120,141.229 74.370,142.421 75.244 C 142.607 75.380,143.344 75.603,144.059 75.740 C 145.474 76.011,146.309 76.434,146.746 77.100 C 146.900 77.335,147.293 77.639,147.618 77.775 C 148.458 78.126,150.440 80.096,150.949 81.083 C 151.184 81.542,151.588 82.158,151.846 82.454 C 153.573 84.432,153.366 91.880,151.513 94.417 C 151.246 94.783,150.927 95.383,150.806 95.750 C 150.681 96.128,150.252 96.741,149.815 97.167 C 149.390 97.579,148.915 98.119,148.758 98.367 C 148.601 98.614,148.160 98.968,147.778 99.154 C 147.396 99.339,146.779 99.813,146.408 100.209 C 145.727 100.932,145.591 100.991,143.035 101.663 C 142.628 101.770,142.136 102.058,141.891 102.333 C 141.202 103.106,140.229 103.344,137.000 103.529 C 128.978 103.989,121.500 103.338,121.500 102.180 C 121.500 101.986,120.762 101.720,119.583 101.491 C 118.268 101.235,117.870 101.011,117.341 100.232 C 117.100 99.875,116.599 99.416,116.228 99.211 C 115.778 98.962,115.425 98.586,115.162 98.075 C 114.946 97.654,114.482 97.083,114.132 96.806 C 113.346 96.183,113.268 96.039,112.830 94.400 C 112.585 93.479,112.331 92.930,111.987 92.573 C 111.081 91.633,110.749 88.312,111.449 87.194 C 112.005 86.307,115.144 85.918,120.833 86.032 C 125.429 86.124,125.860 86.322,126.278 88.532 C 126.469 89.543,126.596 89.814,127.086 90.264 C 127.406 90.557,127.777 91.056,127.910 91.374 C 128.170 91.996,128.645 92.380,129.379 92.561 C 129.634 92.624,130.135 92.940,130.492 93.263 C 131.406 94.088,133.144 94.275,133.921 93.631 C 134.704 92.982,135.861 92.368,136.536 92.245 C 137.621 92.046,138.009 90.353,137.387 88.526 L 137.083 87.636 135.417 86.985 C 134.363 86.573,133.620 86.174,133.398 85.901 C 132.977 85.385,131.500 85.015,129.822 85.006 C 127.682 84.994,126.222 84.572,125.451 83.740 C 125.133 83.397,124.769 83.270,123.528 83.070 C 121.598 82.760,121.223 82.616,120.492 81.906 C 120.162 81.585,119.474 81.182,118.933 80.992 C 117.656 80.543,117.226 80.244,117.024 79.665 C 116.917 79.358,116.612 79.061,116.174 78.837 C 115.629 78.559,115.385 78.274,114.967 77.425 C 114.678 76.839,114.279 76.286,114.081 76.196 C 112.366 75.414,112.295 66.704,113.989 64.917 C 114.250 64.642,114.710 63.937,115.011 63.351 C 115.401 62.592,115.775 62.136,116.308 61.767 C 116.721 61.483,117.495 60.864,118.030 60.393 C 118.841 59.677,119.200 59.487,120.195 59.243 C 121.031 59.038,121.565 58.792,121.985 58.418 C 123.264 57.280,124.073 57.189,132.583 57.235 C 138.597 57.267,139.507 57.306,140.167 57.559 M172.563 57.398 C 173.838 57.930,173.833 57.897,173.833 66.041 C 173.833 72.210,173.870 73.323,174.078 73.495 C 174.451 73.805,186.341 73.673,186.725 73.355 C 186.973 73.148,187.000 72.406,187.000 65.752 C 187.000 56.107,186.088 57.122,194.687 57.197 C 201.312 57.255,201.360 57.262,202.152 58.269 L 202.500 58.712 202.500 80.288 C 202.500 104.074,202.573 102.423,201.490 103.063 C 200.310 103.760,189.101 103.943,187.880 103.286 C 186.987 102.805,187.000 102.941,187.000 93.948 C 187.000 86.332,186.974 85.519,186.724 85.312 C 186.355 85.005,174.739 84.860,174.188 85.156 C 173.834 85.345,173.833 85.351,173.833 93.728 L 173.833 102.111 173.290 102.739 C 172.760 103.353,172.709 103.372,171.165 103.529 C 168.394 103.811,159.690 103.638,159.044 103.287 C 157.928 102.681,158.000 104.249,158.000 80.408 C 158.000 56.520,157.933 57.988,159.053 57.436 C 159.796 57.069,171.698 57.036,172.563 57.398 M237.395 57.412 C 238.725 57.730,239.080 58.116,239.595 59.804 C 239.832 60.582,240.242 61.601,240.505 62.068 C 240.768 62.535,241.211 63.809,241.489 64.899 C 241.809 66.150,242.181 67.169,242.496 67.660 C 242.795 68.126,243.191 69.181,243.480 70.286 C 243.762 71.360,244.219 72.587,244.571 73.217 C 244.974 73.938,245.296 74.851,245.530 75.942 C 245.885 77.594,246.173 78.353,246.913 79.586 C 247.134 79.954,247.475 81.004,247.670 81.919 C 247.925 83.113,248.206 83.890,248.662 84.667 C 249.128 85.459,249.418 86.274,249.744 87.702 C 250.016 88.896,250.346 89.884,250.593 90.248 C 251.277 91.256,251.453 91.700,251.750 93.167 C 252.079 94.790,252.426 95.772,252.838 96.250 C 253.327 96.818,253.494 97.266,253.838 98.940 C 254.021 99.831,254.363 100.902,254.598 101.321 L 255.025 102.083 254.471 102.547 C 253.067 103.722,253.154 103.710,246.368 103.636 C 238.739 103.553,238.965 103.633,238.523 100.874 C 238.402 100.114,238.119 99.268,237.763 98.596 C 237.451 98.009,237.111 97.120,237.008 96.621 C 236.733 95.297,236.935 95.333,229.863 95.333 C 222.619 95.333,223.131 95.198,222.840 97.193 C 222.631 98.622,222.307 99.629,221.829 100.333 C 221.673 100.563,221.450 101.050,221.333 101.417 C 220.671 103.491,220.484 103.550,214.250 103.630 C 206.155 103.734,205.529 103.565,205.716 101.334 C 205.823 100.055,206.294 98.709,206.877 98.016 C 207.269 97.551,207.477 96.899,208.076 94.253 C 208.245 93.506,208.512 92.875,208.823 92.488 C 209.339 91.846,209.514 91.327,209.901 89.306 C 210.152 87.994,210.633 86.843,211.183 86.241 C 211.375 86.032,211.634 85.223,211.850 84.158 C 212.219 82.341,212.436 81.778,213.111 80.876 C 213.388 80.505,213.639 79.738,213.910 78.434 C 214.329 76.410,214.488 75.992,215.085 75.333 C 215.472 74.907,215.880 73.667,216.072 72.333 C 216.271 70.955,216.514 70.319,217.083 69.689 C 217.561 69.160,217.699 68.808,217.988 67.394 C 218.421 65.265,218.743 64.363,219.258 63.825 C 219.574 63.495,219.763 62.946,220.071 61.461 C 220.654 58.647,221.204 57.808,222.772 57.338 C 223.630 57.082,236.278 57.145,237.395 57.412 M293.121 57.525 C 295.032 58.171,294.833 55.515,294.833 80.408 L 294.833 102.104 294.375 102.538 C 293.322 103.534,292.124 103.693,286.144 103.636 C 280.236 103.578,280.130 103.562,279.042 102.541 L 278.500 102.033 278.500 80.382 L 278.500 58.732 279.062 58.187 C 280.059 57.221,280.347 57.182,286.488 57.174 C 291.760 57.167,292.117 57.186,293.121 57.525 M340.686 57.333 C 341.378 57.460,341.707 57.631,342.125 58.080 L 342.667 58.662 342.663 62.873 C 342.658 68.825,343.230 68.385,335.341 68.501 C 331.113 68.564,329.484 68.643,329.208 68.799 L 328.833 69.012 328.833 85.568 L 328.833 102.124 328.106 102.795 L 327.379 103.465 325.599 103.586 C 322.211 103.817,314.841 103.607,314.118 103.259 C 312.929 102.687,313.000 103.818,313.000 85.529 C 313.000 70.405,312.977 69.022,312.725 68.812 C 312.507 68.631,311.193 68.566,306.433 68.500 C 298.180 68.386,298.833 68.875,298.833 62.806 C 298.833 57.856,298.839 57.836,300.422 57.411 C 301.460 57.133,339.205 57.059,340.686 57.333 M85.424 72.621 C 85.361 72.784,85.090 73.993,84.823 75.309 C 84.493 76.934,84.169 78.031,83.815 78.726 C 83.320 79.696,82.674 82.222,82.669 83.202 C 82.665 84.003,86.665 84.325,88.685 83.687 L 89.287 83.497 88.909 82.751 C 88.701 82.341,88.444 81.460,88.336 80.794 C 88.039 78.944,87.665 77.619,87.336 77.250 C 86.696 76.532,86.478 75.846,86.085 73.308 C 85.970 72.567,85.596 72.178,85.424 72.621 M229.757 72.621 C 229.694 72.784,229.423 73.993,229.156 75.309 C 228.826 76.934,228.502 78.031,228.148 78.726 C 227.654 79.696,227.007 82.222,227.002 83.202 C 226.998 84.006,230.996 84.324,233.035 83.683 L 233.654 83.488 233.330 82.954 C 233.151 82.660,232.890 81.857,232.750 81.168 C 232.141 78.182,231.962 77.509,231.726 77.314 C 231.135 76.823,230.808 75.821,230.419 73.308 C 230.304 72.567,229.930 72.178,229.757 72.621 M272.583 80.082 C 274.358 80.504,274.333 80.425,274.333 85.561 L 274.333 89.938 273.875 90.358 C 273.067 91.098,272.219 91.167,263.896 91.167 C 253.725 91.167,254.667 91.745,254.667 85.500 C 254.667 80.861,254.717 80.596,255.700 80.112 C 256.470 79.733,271.002 79.707,272.583 80.082 " stroke="none" fill="#fbfbfb" fill-rule="evenodd"></path><path id="path2" d="M16.654 16.654 L 16.167 17.141 16.170 75.196 C 16.174 139.185,16.085 133.621,17.114 134.147 C 17.636 134.414,382.364 134.414,382.886 134.147 C 383.915 133.621,383.826 139.185,383.830 75.196 L 383.833 17.141 383.346 16.654 L 382.859 16.167 200.000 16.167 L 17.141 16.167 16.654 16.654 M383.013 16.987 L 383.500 17.474 383.500 75.197 L 383.500 132.920 383.077 133.377 L 382.653 133.833 200.000 133.833 L 17.347 133.833 16.923 133.377 L 16.500 132.920 16.500 75.197 L 16.500 17.474 16.987 16.987 L 17.474 16.500 200.000 16.500 L 382.526 16.500 383.013 16.987 M86.167 57.664 C 77.519 57.803,77.200 58.142,85.703 58.156 C 92.474 58.167,92.879 58.216,93.315 59.065 C 93.414 59.258,93.648 59.606,93.835 59.837 C 94.043 60.094,94.303 60.899,94.506 61.920 C 94.807 63.427,95.004 63.937,96.014 65.833 C 96.185 66.154,96.444 67.017,96.589 67.750 C 96.916 69.403,97.101 69.905,97.694 70.750 C 97.973 71.147,98.301 71.991,98.504 72.833 C 99.134 75.442,99.205 75.655,99.732 76.473 C 100.021 76.921,100.391 77.841,100.554 78.519 C 101.124 80.880,101.197 81.090,101.833 82.167 C 102.278 82.920,102.558 83.677,102.752 84.649 C 103.100 86.387,103.399 87.250,103.915 88.000 C 104.141 88.328,104.538 89.449,104.823 90.564 C 105.101 91.653,105.479 92.778,105.663 93.064 C 106.243 93.965,106.512 94.664,106.936 96.379 C 107.346 98.036,107.613 98.704,108.184 99.500 C 108.348 99.729,108.604 100.400,108.754 100.990 L 109.025 102.063 108.638 102.364 C 108.280 102.642,107.839 102.661,102.875 102.624 C 99.919 102.602,97.500 102.637,97.500 102.702 C 97.500 103.089,98.479 103.167,103.385 103.167 C 109.226 103.167,109.418 103.148,110.179 102.514 L 110.718 102.063 110.279 101.314 C 110.023 100.877,109.706 99.900,109.518 98.967 C 109.185 97.307,108.998 96.814,108.493 96.250 C 108.159 95.878,107.622 94.269,107.324 92.750 C 107.136 91.792,106.882 91.207,106.155 90.059 C 105.972 89.771,105.633 88.683,105.400 87.642 C 105.089 86.249,104.809 85.464,104.339 84.667 C 103.881 83.890,103.599 83.113,103.344 81.924 C 103.147 81.011,102.805 79.961,102.583 79.590 C 101.839 78.352,101.552 77.595,101.197 75.942 C 100.966 74.867,100.641 73.938,100.254 73.245 C 99.929 72.665,99.481 71.489,99.259 70.634 C 98.758 68.705,98.621 68.342,98.091 67.541 C 97.851 67.179,97.448 66.040,97.159 64.910 C 96.879 63.814,96.438 62.542,96.180 62.083 C 95.923 61.625,95.513 60.600,95.271 59.806 C 94.707 57.952,94.226 57.483,92.946 57.535 C 92.471 57.554,89.421 57.612,86.167 57.664 M132.083 57.668 C 128.331 57.768,126.334 57.958,126.333 58.216 C 126.333 58.235,128.720 58.227,131.636 58.200 C 137.559 58.144,138.919 58.289,139.854 59.075 C 140.349 59.492,141.452 59.880,142.750 60.094 C 143.491 60.216,144.139 60.568,144.466 61.025 C 144.584 61.192,145.034 61.565,145.466 61.854 C 147.195 63.016,147.778 63.758,148.313 65.477 C 148.480 66.012,148.841 66.780,149.115 67.183 C 149.884 68.313,150.028 68.879,149.749 69.671 C 149.195 71.241,148.500 71.442,143.083 71.602 C 139.334 71.713,139.130 71.735,139.833 71.951 C 142.182 72.672,150.146 72.028,150.777 71.066 C 151.451 70.036,150.926 66.484,149.874 64.958 C 149.542 64.477,149.041 63.635,148.760 63.086 C 148.372 62.329,148.081 61.996,147.546 61.702 C 147.159 61.488,146.559 61.014,146.213 60.649 C 145.722 60.131,145.326 59.910,144.417 59.645 C 142.784 59.171,142.338 58.993,141.641 58.540 C 140.265 57.645,138.624 57.495,132.083 57.668 M166.264 57.625 C 163.012 57.659,161.709 57.729,161.529 57.878 C 161.331 58.042,162.372 58.100,166.699 58.167 C 170.950 58.232,172.175 58.299,172.391 58.479 C 172.640 58.685,172.667 59.432,172.672 66.062 C 172.678 73.868,172.654 73.636,173.495 74.216 C 173.868 74.473,174.541 74.498,180.495 74.480 C 184.119 74.469,186.858 74.403,186.583 74.333 C 186.308 74.263,183.946 74.197,181.333 74.187 C 176.616 74.168,174.716 73.977,174.042 73.454 C 173.881 73.329,173.833 71.640,173.833 66.017 C 173.833 58.042,173.862 58.282,172.831 57.749 C 172.556 57.606,172.008 57.517,171.550 57.539 C 171.110 57.560,168.731 57.599,166.264 57.625 M194.977 57.625 C 191.295 57.664,190.501 57.714,190.331 57.919 C 190.150 58.137,190.685 58.167,194.783 58.167 C 198.490 58.167,199.616 58.219,200.304 58.423 L 201.168 58.680 201.126 80.381 L 201.083 102.082 200.417 102.331 C 199.881 102.532,198.794 102.581,194.876 102.582 C 190.258 102.583,190.022 102.598,190.376 102.866 C 190.873 103.241,200.577 103.394,201.424 103.040 C 202.579 102.557,202.500 104.240,202.500 80.249 L 202.500 58.633 201.933 58.067 C 201.405 57.538,201.301 57.503,200.392 57.539 C 199.855 57.560,197.419 57.599,194.977 57.625 M230.500 57.664 C 221.853 57.803,221.533 58.142,230.036 58.156 C 236.807 58.167,237.213 58.216,237.648 59.065 C 237.747 59.258,237.981 59.606,238.168 59.837 C 238.377 60.094,238.636 60.899,238.840 61.920 C 239.141 63.427,239.337 63.937,240.348 65.833 C 240.518 66.154,240.777 67.017,240.922 67.750 C 241.249 69.403,241.434 69.905,242.028 70.750 C 242.306 71.147,242.634 71.991,242.837 72.833 C 243.469 75.449,243.546 75.678,244.046 76.434 C 244.375 76.931,244.708 77.846,245.025 79.130 C 245.366 80.507,245.696 81.391,246.156 82.162 C 246.615 82.930,246.888 83.661,247.086 84.649 C 247.433 86.387,247.732 87.250,248.249 88.000 C 248.475 88.328,248.872 89.449,249.156 90.564 C 249.434 91.653,249.812 92.778,249.996 93.064 C 250.576 93.965,250.845 94.664,251.269 96.379 C 251.679 98.036,251.946 98.704,252.517 99.500 C 252.681 99.729,252.938 100.400,253.087 100.990 L 253.359 102.063 252.971 102.364 C 252.613 102.642,252.172 102.661,247.208 102.624 C 244.252 102.602,241.833 102.637,241.833 102.702 C 241.834 103.089,242.812 103.167,247.718 103.167 C 253.546 103.167,253.754 103.147,254.499 102.524 L 255.025 102.083 254.598 101.321 C 254.363 100.902,254.021 99.831,253.838 98.940 C 253.494 97.266,253.327 96.818,252.838 96.250 C 252.426 95.772,252.079 94.790,251.750 93.167 C 251.453 91.700,251.277 91.256,250.593 90.248 C 250.346 89.884,250.016 88.896,249.744 87.702 C 249.418 86.274,249.128 85.459,248.662 84.667 C 248.206 83.890,247.925 83.113,247.670 81.919 C 247.475 81.004,247.134 79.954,246.913 79.586 C 246.173 78.353,245.885 77.594,245.530 75.942 C 245.296 74.851,244.974 73.938,244.571 73.217 C 244.219 72.587,243.762 71.360,243.480 70.286 C 243.191 69.181,242.795 68.126,242.496 67.660 C 242.181 67.169,241.809 66.150,241.489 64.899 C 241.211 63.809,240.768 62.535,240.505 62.068 C 240.242 61.601,239.830 60.574,239.589 59.785 C 239.028 57.945,238.554 57.483,237.279 57.535 C 236.805 57.554,233.754 57.612,230.500 57.664 M287.250 57.666 C 280.200 57.822,279.856 58.134,286.714 58.152 C 291.294 58.165,292.067 58.203,292.423 58.436 L 292.833 58.705 292.833 80.341 L 292.833 101.977 292.349 102.322 C 291.887 102.651,291.641 102.667,286.808 102.681 C 282.917 102.692,281.865 102.738,282.250 102.879 C 282.575 102.999,284.688 103.067,288.280 103.073 L 293.811 103.083 294.322 102.594 L 294.833 102.104 294.833 80.423 C 294.833 61.101,294.805 58.701,294.575 58.372 C 294.010 57.565,293.608 57.526,287.250 57.666 M320.811 57.625 C 304.388 57.663,302.014 57.699,301.833 57.917 C 301.649 58.138,303.779 58.167,320.616 58.167 C 337.250 58.167,339.714 58.199,340.473 58.424 L 341.339 58.681 341.295 62.866 L 341.250 67.050 340.583 67.309 C 340.047 67.517,338.807 67.585,334.219 67.659 L 328.521 67.750 328.011 68.240 L 327.500 68.729 327.500 85.352 L 327.500 101.976 327.053 102.328 C 326.615 102.672,326.483 102.679,321.314 102.632 C 316.284 102.586,316.036 102.598,316.288 102.875 C 316.529 103.141,317.016 103.167,321.848 103.167 C 327.321 103.167,327.753 103.121,328.458 102.460 L 328.833 102.109 328.833 85.546 L 328.833 68.983 329.458 68.726 C 329.802 68.584,330.332 68.352,330.636 68.210 C 331.111 67.988,331.922 67.964,336.436 68.038 L 341.683 68.124 342.175 67.633 L 342.667 67.141 342.667 62.887 L 342.667 58.633 342.100 58.067 C 341.571 57.537,341.469 57.503,340.558 57.541 C 340.022 57.563,331.136 57.601,320.811 57.625 M129.250 65.663 C 127.551 65.854,125.659 67.677,125.670 69.114 C 125.685 70.995,127.079 72.146,129.978 72.670 C 131.160 72.883,131.897 73.112,132.311 73.394 C 133.170 73.979,134.469 74.320,136.583 74.516 C 138.827 74.723,139.515 74.895,140.117 75.398 C 140.836 75.997,141.467 76.264,142.917 76.580 C 144.478 76.921,144.688 77.018,145.615 77.830 C 145.999 78.166,146.624 78.534,147.004 78.648 C 147.501 78.797,147.772 79.004,147.972 79.386 C 148.125 79.678,148.605 80.258,149.040 80.675 C 149.735 81.342,149.887 81.623,150.307 83.008 C 150.570 83.875,150.947 84.890,151.145 85.264 C 151.815 86.532,151.828 89.245,151.170 91.000 C 150.878 91.779,150.542 92.754,150.423 93.167 C 150.024 94.550,149.664 95.221,148.864 96.071 C 148.427 96.536,147.968 97.163,147.845 97.464 C 147.680 97.869,147.395 98.119,146.748 98.425 C 146.268 98.652,145.547 99.125,145.146 99.476 C 144.182 100.320,143.903 100.455,142.507 100.748 C 141.392 100.983,140.748 101.258,139.583 101.997 C 138.638 102.596,130.738 102.921,127.167 102.507 C 125.726 102.340,125.606 102.374,126.323 102.744 C 126.762 102.972,127.795 103.029,132.963 103.115 C 139.861 103.230,140.140 103.196,142.084 102.024 C 142.822 101.579,143.460 101.349,144.395 101.192 C 145.599 100.990,145.735 100.924,146.385 100.224 C 146.769 99.811,147.397 99.323,147.781 99.140 C 148.165 98.956,148.606 98.606,148.761 98.361 C 148.916 98.117,149.390 97.579,149.815 97.167 C 150.252 96.741,150.681 96.128,150.806 95.750 C 150.927 95.383,151.246 94.783,151.513 94.417 C 153.366 91.880,153.573 84.432,151.846 82.454 C 151.588 82.158,151.183 81.542,150.945 81.083 C 150.425 80.080,148.686 78.343,147.711 77.851 C 147.323 77.656,146.880 77.305,146.728 77.073 C 146.334 76.472,145.705 76.195,144.242 75.978 C 143.211 75.824,142.821 75.677,142.212 75.213 C 141.169 74.417,140.364 74.166,138.333 74.006 C 136.611 73.870,135.290 73.541,134.530 73.057 C 133.846 72.621,132.808 72.330,130.769 72.003 C 128.488 71.637,128.390 71.572,127.858 70.063 L 127.498 69.043 128.009 67.950 C 128.696 66.482,129.639 66.022,132.039 65.983 C 132.613 65.974,133.271 65.913,133.500 65.848 C 134.545 65.550,131.454 65.416,129.250 65.663 M301.699 67.657 C 301.940 68.042,313.000 68.215,313.000 67.833 C 313.000 67.726,311.080 67.667,307.572 67.667 C 304.069 67.667,302.028 67.604,301.815 67.490 C 301.512 67.328,301.502 67.342,301.699 67.657 M85.012 70.487 C 84.661 70.863,84.444 71.391,84.170 72.538 C 83.968 73.388,83.514 74.683,83.162 75.417 C 82.665 76.451,82.425 77.284,82.093 79.130 C 81.781 80.862,81.531 81.761,81.174 82.430 C 80.180 84.291,81.101 84.739,86.000 84.779 C 88.350 84.798,89.354 84.758,88.917 84.663 C 88.550 84.584,87.195 84.515,85.906 84.510 L 83.562 84.500 83.078 83.994 L 82.594 83.489 82.884 81.786 C 83.081 80.629,83.362 79.691,83.762 78.860 C 84.167 78.017,84.499 76.901,84.829 75.276 C 85.406 72.438,85.437 72.348,85.820 72.448 C 86.396 72.599,86.870 71.481,86.493 70.862 C 85.967 69.996,85.565 69.895,85.012 70.487 M229.642 70.177 C 229.153 70.451,228.821 71.166,228.407 72.841 C 228.180 73.756,227.745 74.976,227.440 75.552 C 227.124 76.146,226.795 77.101,226.680 77.758 C 226.151 80.760,225.928 81.641,225.489 82.463 C 224.516 84.288,225.460 84.740,230.333 84.779 C 232.684 84.798,233.687 84.758,233.250 84.663 C 232.883 84.584,231.529 84.515,230.240 84.510 L 227.896 84.500 227.411 83.994 L 226.927 83.489 227.217 81.786 C 227.414 80.629,227.696 79.691,228.095 78.860 C 228.500 78.017,228.833 76.901,229.163 75.276 C 229.739 72.438,229.771 72.348,230.153 72.448 C 230.729 72.599,231.203 71.481,230.826 70.862 C 230.445 70.235,229.999 69.977,229.642 70.177 M264.917 80.330 C 260.232 80.392,258.324 80.473,258.083 80.620 C 257.818 80.782,259.142 80.824,264.619 80.828 C 270.710 80.833,271.555 80.865,272.078 81.114 L 272.667 81.395 272.667 85.537 L 272.667 89.679 271.903 90.006 C 271.188 90.312,270.712 90.334,264.528 90.347 C 258.783 90.359,257.982 90.390,258.417 90.589 C 258.815 90.772,260.383 90.820,266.158 90.826 L 273.398 90.833 273.866 90.385 L 274.333 89.938 274.333 85.539 L 274.333 81.141 273.846 80.654 C 273.407 80.214,273.264 80.170,272.388 80.205 C 271.854 80.225,268.492 80.282,264.917 80.330 M124.167 82.162 C 124.304 82.253,124.673 82.329,124.986 82.331 C 125.733 82.334,125.600 82.240,124.667 82.104 C 124.143 82.028,123.992 82.045,124.167 82.162 M130.250 84.258 C 130.736 84.451,131.208 84.496,131.991 84.423 C 133.339 84.299,133.506 84.167,132.319 84.165 C 131.823 84.164,131.004 84.126,130.500 84.079 L 129.583 83.994 130.250 84.258 M173.233 84.733 L 172.667 85.300 172.667 93.624 C 172.667 101.874,172.664 101.951,172.316 102.266 C 171.991 102.560,171.576 102.589,166.608 102.667 C 162.341 102.733,161.321 102.791,161.597 102.949 C 162.104 103.240,172.290 103.287,172.847 103.001 C 173.868 102.477,173.826 102.880,173.830 93.718 C 173.832 87.444,173.883 85.322,174.031 85.231 C 174.823 84.742,176.274 84.599,181.361 84.509 C 188.788 84.379,188.158 84.167,180.344 84.167 L 173.800 84.167 173.233 84.733 M122.417 86.498 C 121.958 86.565,120.683 86.633,119.583 86.650 C 116.992 86.691,114.472 87.231,114.258 87.790 C 114.162 88.040,114.179 88.042,114.451 87.804 C 115.197 87.152,122.175 86.751,123.924 87.259 L 124.813 87.518 125.009 88.467 C 125.584 91.263,126.397 92.445,128.458 93.483 C 128.848 93.680,129.167 93.907,129.167 93.990 C 129.167 94.656,131.954 95.269,133.844 95.017 L 134.750 94.897 133.854 94.763 C 132.844 94.613,131.253 93.963,130.748 93.495 C 130.564 93.324,130.002 93.001,129.498 92.778 C 128.514 92.342,128.109 91.977,127.920 91.359 C 127.854 91.144,127.508 90.684,127.150 90.337 C 126.588 89.791,126.469 89.541,126.269 88.486 C 125.884 86.447,125.202 86.096,122.417 86.498 M79.089 94.522 C 77.630 94.863,76.715 96.437,76.051 99.748 C 75.433 102.828,76.003 102.583,69.465 102.583 C 64.915 102.583,64.374 102.611,64.595 102.833 C 64.802 103.041,65.726 103.098,70.047 103.170 C 76.435 103.275,76.463 103.268,77.087 101.167 C 77.155 100.938,77.352 100.549,77.525 100.303 C 77.979 99.659,78.276 98.725,78.502 97.240 C 78.862 94.862,78.930 94.841,86.699 94.817 C 91.876 94.800,93.500 94.690,92.083 94.450 C 91.085 94.281,79.852 94.343,79.089 94.522 M223.402 94.522 C 222.536 94.717,222.159 95.074,221.445 96.373 C 220.856 97.443,220.697 97.981,220.202 100.582 C 219.801 102.690,220.141 102.583,213.798 102.583 C 209.249 102.583,208.707 102.611,208.929 102.833 C 209.136 103.041,210.059 103.098,214.381 103.170 C 220.768 103.275,220.796 103.268,221.420 101.167 C 221.488 100.938,221.671 100.563,221.828 100.333 C 222.300 99.640,222.621 98.651,222.830 97.249 C 223.185 94.855,223.232 94.842,231.032 94.817 C 236.210 94.800,237.833 94.690,236.417 94.450 C 235.425 94.282,224.192 94.345,223.402 94.522 " stroke="none" fill="#449cec" fill-rule="evenodd"></path><path id="path3" d="M16.987 16.987 L 16.500 17.474 16.500 75.197 L 16.500 132.920 16.923 133.377 L 17.347 133.833 200.000 133.833 L 382.653 133.833 383.077 133.377 L 383.500 132.920 383.500 75.197 L 383.500 17.474 383.013 16.987 L 382.526 16.500 200.000 16.500 L 17.474 16.500 16.987 16.987 M382.894 17.106 L 383.333 17.545 383.333 75.220 L 383.333 132.895 382.971 133.281 L 382.609 133.667 200.023 133.667 L 17.438 133.667 17.052 133.304 L 16.667 132.942 16.667 75.244 L 16.667 17.545 17.106 17.106 L 17.545 16.667 200.000 16.667 L 382.455 16.667 382.894 17.106 M78.917 57.659 C 78.454 57.850,77.899 58.480,77.584 59.169 C 77.439 59.489,77.172 59.983,76.991 60.269 C 76.811 60.554,76.403 61.789,76.086 63.013 C 75.769 64.237,75.369 65.429,75.198 65.661 C 74.655 66.399,74.518 66.756,74.002 68.768 C 73.725 69.850,73.328 71.002,73.119 71.326 C 72.552 72.209,72.374 72.685,71.914 74.550 C 71.676 75.512,71.288 76.584,71.018 77.019 C 70.488 77.875,70.122 78.917,69.823 80.417 C 69.714 80.967,69.294 82.077,68.891 82.885 C 68.460 83.747,67.987 85.053,67.746 86.048 C 67.493 87.095,67.138 88.062,66.817 88.578 C 66.478 89.123,66.101 90.180,65.732 91.617 C 65.376 93.008,64.989 94.102,64.684 94.583 C 64.417 95.003,64.038 95.962,63.840 96.715 C 63.282 98.836,62.980 99.711,62.640 100.197 C 60.800 102.823,61.969 103.350,69.500 103.294 L 73.917 103.261 69.417 103.172 L 64.917 103.083 64.286 102.637 C 63.939 102.392,63.580 102.165,63.487 102.134 C 63.382 102.099,63.414 101.848,63.572 101.469 C 63.712 101.134,63.980 100.173,64.167 99.334 C 64.354 98.494,64.674 97.507,64.878 97.139 C 65.083 96.772,65.376 96.245,65.530 95.967 C 65.683 95.690,66.007 94.612,66.249 93.572 C 66.521 92.403,66.850 91.443,67.110 91.059 C 67.659 90.251,67.769 89.951,68.350 87.667 C 68.618 86.612,68.975 85.563,69.143 85.333 C 69.730 84.533,70.022 83.802,70.342 82.332 C 70.695 80.717,70.879 80.219,71.449 79.331 C 71.656 79.009,72.060 77.846,72.346 76.748 C 72.640 75.623,73.110 74.313,73.422 73.750 C 73.728 73.199,74.175 71.963,74.417 71.000 C 74.668 70.001,75.104 68.805,75.433 68.214 C 75.776 67.598,76.210 66.389,76.506 65.228 C 76.821 63.988,77.186 62.989,77.507 62.488 C 77.805 62.025,78.159 61.093,78.368 60.225 C 78.984 57.669,78.665 57.774,86.167 57.660 L 92.083 57.570 85.667 57.545 C 82.137 57.532,79.100 57.583,78.917 57.659 M125.691 57.693 C 124.669 57.839,123.466 58.317,123.253 58.662 C 123.196 58.754,122.407 59.060,121.500 59.342 C 120.101 59.776,119.735 59.967,119.099 60.594 C 118.687 61.001,118.258 61.333,118.146 61.333 C 117.663 61.333,115.618 63.733,115.063 64.949 C 114.757 65.622,114.356 66.377,114.174 66.628 C 113.258 67.884,113.111 72.320,113.933 73.917 C 114.169 74.375,114.662 75.348,115.030 76.079 C 115.987 77.983,118.129 80.095,119.667 80.651 C 120.303 80.881,121.038 81.307,121.448 81.683 C 122.192 82.363,122.212 82.371,124.228 82.747 C 124.950 82.881,125.812 83.139,126.145 83.319 C 128.227 84.447,128.389 84.495,130.862 84.731 C 133.330 84.966,133.856 85.123,134.948 85.954 C 135.241 86.176,135.878 86.509,136.365 86.693 C 137.292 87.044,137.832 87.426,137.835 87.734 C 137.836 87.835,138.016 88.301,138.235 88.772 L 138.633 89.627 138.322 90.748 C 137.949 92.092,137.837 92.242,136.796 92.769 C 136.352 92.994,135.847 93.320,135.674 93.493 C 135.155 94.012,134.721 94.174,133.566 94.282 C 132.045 94.424,132.604 94.715,134.436 94.735 C 135.620 94.748,135.869 94.699,136.278 94.373 C 136.537 94.166,137.050 93.801,137.417 93.562 C 139.453 92.235,140.518 90.329,139.895 89.125 C 139.252 87.881,138.120 86.648,137.192 86.179 C 136.674 85.917,136.100 85.535,135.917 85.329 C 135.291 84.626,134.559 84.436,132.417 84.422 C 130.138 84.407,129.794 84.301,127.593 82.939 C 127.006 82.575,126.552 82.442,125.702 82.382 C 124.315 82.285,122.963 81.773,122.062 81.004 C 121.684 80.681,120.989 80.282,120.518 80.117 C 119.484 79.756,116.647 77.043,115.950 75.750 C 115.676 75.243,114.639 71.469,114.641 70.987 C 114.642 70.536,115.853 65.274,116.038 64.920 C 116.134 64.735,116.467 64.370,116.778 64.109 C 117.089 63.848,117.492 63.342,117.674 62.985 C 117.907 62.529,118.243 62.216,118.807 61.930 C 119.248 61.706,119.801 61.272,120.035 60.965 C 120.405 60.480,120.669 60.353,122.023 60.007 C 122.881 59.788,124.220 59.282,124.999 58.884 C 127.090 57.814,127.188 57.798,132.083 57.675 L 136.583 57.562 131.667 57.552 C 128.962 57.546,126.273 57.609,125.691 57.693 M160.003 57.671 C 159.683 57.746,159.252 58.005,159.044 58.246 L 158.667 58.685 158.672 80.384 C 158.676 97.180,158.723 102.143,158.880 102.346 C 159.568 103.235,159.669 103.249,165.576 103.264 L 171.083 103.277 166.392 103.180 C 162.448 103.099,161.652 103.041,161.392 102.819 C 161.222 102.674,160.840 102.458,160.542 102.341 L 160.000 102.126 160.000 80.388 L 160.000 58.650 160.625 58.392 C 160.969 58.250,161.367 58.030,161.510 57.903 C 161.715 57.721,162.725 57.662,166.260 57.625 L 170.750 57.578 165.667 57.556 C 162.871 57.544,160.322 57.596,160.003 57.671 M188.926 57.665 C 188.531 57.741,188.116 57.970,187.884 58.238 L 187.500 58.685 187.500 66.005 L 187.500 73.326 187.049 73.621 C 186.649 73.883,186.006 73.926,181.341 73.999 L 176.083 74.082 181.667 74.172 C 189.647 74.300,188.825 75.254,188.830 65.866 L 188.833 58.650 189.458 58.392 C 189.802 58.250,190.200 58.030,190.343 57.903 C 190.548 57.722,191.546 57.662,195.010 57.625 L 199.417 57.578 194.500 57.558 C 191.796 57.547,189.288 57.595,188.926 57.665 M223.250 57.659 C 222.797 57.846,222.270 58.448,221.856 59.250 C 220.982 60.943,220.795 61.439,220.344 63.264 C 220.078 64.336,219.717 65.409,219.541 65.648 C 218.979 66.412,218.830 66.795,218.323 68.790 C 218.050 69.865,217.653 71.008,217.441 71.331 C 216.953 72.073,216.573 73.100,216.237 74.583 C 215.998 75.641,215.743 76.270,214.952 77.750 C 214.805 78.025,214.464 79.114,214.194 80.170 C 213.908 81.286,213.455 82.542,213.112 83.170 C 212.774 83.788,212.335 84.999,212.086 86.000 C 211.827 87.040,211.444 88.088,211.141 88.582 C 210.817 89.110,210.424 90.217,210.066 91.614 C 209.727 92.937,209.334 94.063,209.080 94.437 C 208.848 94.779,208.510 95.570,208.329 96.196 C 208.148 96.822,207.842 97.876,207.650 98.540 C 207.457 99.203,207.156 99.948,206.980 100.195 C 205.116 102.813,206.304 103.350,213.833 103.294 L 218.250 103.261 213.750 103.172 L 209.250 103.083 208.620 102.637 C 208.273 102.392,207.913 102.165,207.820 102.134 C 207.715 102.099,207.747 101.848,207.905 101.469 C 208.045 101.134,208.313 100.173,208.500 99.334 C 208.687 98.494,209.007 97.507,209.212 97.139 C 209.416 96.772,209.709 96.245,209.863 95.967 C 210.017 95.690,210.341 94.612,210.583 93.572 C 210.854 92.403,211.183 91.443,211.444 91.059 C 211.992 90.251,212.102 89.951,212.683 87.667 C 212.952 86.612,213.309 85.563,213.477 85.333 C 214.054 84.545,214.326 83.861,214.660 82.363 C 215.025 80.723,215.212 80.218,215.782 79.331 C 215.990 79.009,216.393 77.846,216.680 76.748 C 216.973 75.623,217.443 74.313,217.756 73.750 C 218.061 73.199,218.508 71.963,218.750 71.000 C 219.001 70.001,219.437 68.805,219.766 68.214 C 220.110 67.598,220.544 66.389,220.839 65.228 C 221.154 63.988,221.520 62.989,221.841 62.488 C 222.138 62.025,222.493 61.093,222.702 60.225 C 223.317 57.669,222.999 57.774,230.500 57.660 L 236.417 57.570 230.000 57.545 C 226.471 57.532,223.433 57.583,223.250 57.659 M280.719 57.825 C 279.791 58.391,279.833 57.315,279.833 80.458 L 279.833 102.104 280.190 102.487 C 280.940 103.292,281.293 103.336,286.786 103.301 L 291.917 103.269 287.333 103.160 C 282.733 103.050,281.745 102.925,281.125 102.374 C 280.850 102.130,280.833 100.868,280.833 80.327 L 280.833 58.538 281.208 58.297 C 281.935 57.828,282.461 57.773,287.250 57.672 L 292.083 57.569 286.667 57.535 C 281.563 57.503,281.219 57.520,280.719 57.825 M301.333 57.687 C 300.155 58.157,300.167 58.106,300.167 62.833 C 300.167 68.696,299.688 68.333,307.418 68.333 C 312.369 68.333,312.719 68.353,313.340 68.670 L 314.000 69.007 314.000 85.575 L 314.000 102.142 314.440 102.488 C 315.405 103.248,316.204 103.336,321.739 103.294 L 326.917 103.255 321.755 103.208 L 316.594 103.162 316.047 102.632 L 315.500 102.101 315.500 85.588 C 315.500 67.684,315.548 68.638,314.630 68.147 C 314.382 68.014,312.433 67.966,308.097 67.984 L 301.917 68.011 301.542 67.454 C 301.178 66.914,301.167 66.769,301.167 62.854 L 301.167 58.811 301.603 58.240 L 302.038 57.668 320.811 57.625 L 339.583 57.582 320.667 57.552 C 308.415 57.532,301.603 57.580,301.333 57.687 M131.917 65.989 L 130.583 66.083 132.000 66.182 C 134.578 66.360,136.366 67.919,137.573 71.038 C 138.041 72.249,138.395 72.336,142.667 72.301 L 146.417 72.270 143.167 72.169 C 138.945 72.037,138.642 71.901,138.304 69.984 C 138.128 68.983,138.051 68.855,136.975 67.786 C 136.347 67.161,135.833 66.588,135.833 66.511 C 135.833 66.434,135.578 66.250,135.266 66.102 C 134.694 65.830,134.328 65.818,131.917 65.989 M330.750 68.167 C 330.682 68.276,332.106 68.333,334.897 68.333 C 337.551 68.333,339.186 68.271,339.250 68.167 C 339.318 68.057,337.894 68.000,335.103 68.000 C 332.449 68.000,330.814 68.063,330.750 68.167 M86.433 71.968 C 86.202 72.415,86.233 72.522,87.087 74.260 C 87.725 75.559,88.110 76.635,88.426 78.000 C 88.670 79.054,89.085 80.329,89.349 80.833 C 90.932 83.855,90.759 84.054,86.454 84.168 C 82.485 84.273,82.711 84.446,86.961 84.557 L 90.172 84.641 90.669 84.222 C 91.261 83.724,91.271 83.544,90.831 81.405 C 90.605 80.306,90.303 79.429,89.906 78.719 C 89.471 77.942,89.190 77.077,88.836 75.430 C 88.311 72.985,88.066 72.374,87.398 71.848 C 86.822 71.395,86.723 71.408,86.433 71.968 M230.765 71.970 C 230.533 72.419,230.561 72.518,231.354 74.095 C 231.917 75.215,232.346 76.396,232.681 77.750 C 233.235 79.986,233.431 80.562,233.840 81.167 C 233.996 81.396,234.242 81.996,234.389 82.500 C 234.828 84.011,234.712 84.064,230.787 84.168 C 226.818 84.273,227.044 84.446,231.294 84.557 L 234.505 84.641 235.003 84.222 C 235.592 83.726,235.604 83.541,235.173 81.445 C 234.959 80.408,234.613 79.401,234.179 78.552 C 233.707 77.631,233.412 76.738,233.170 75.500 C 232.729 73.239,232.425 72.440,231.809 71.921 C 231.175 71.388,231.064 71.393,230.765 71.970 M255.900 80.733 L 255.333 81.300 255.339 85.525 C 255.346 91.462,254.474 90.912,263.909 90.930 L 271.083 90.944 264.826 90.847 C 259.249 90.761,258.520 90.718,258.123 90.458 C 257.879 90.298,257.521 90.167,257.328 90.167 C 256.324 90.167,256.333 90.211,256.333 85.598 C 256.333 80.910,256.249 81.238,257.583 80.741 C 258.325 80.465,259.133 80.421,264.917 80.337 L 271.417 80.242 263.942 80.205 L 256.467 80.167 255.900 80.733 M181.250 84.496 L 176.083 84.583 181.333 84.674 C 186.038 84.756,186.631 84.797,187.042 85.068 L 187.500 85.372 187.500 93.738 L 187.500 102.104 187.984 102.568 C 188.657 103.213,190.082 103.355,195.250 103.294 L 199.417 103.244 195.121 103.205 C 190.978 103.168,190.804 103.153,190.205 102.787 C 189.863 102.578,189.433 102.326,189.250 102.227 C 188.925 102.051,188.916 101.853,188.873 93.823 L 188.830 85.598 188.383 85.131 C 187.971 84.702,186.981 84.284,186.583 84.372 C 186.492 84.393,184.092 84.449,181.250 84.496 M116.417 86.498 C 112.622 86.788,111.542 87.876,112.395 90.551 C 112.546 91.027,112.857 92.088,113.085 92.909 C 113.313 93.729,113.668 94.642,113.875 94.936 C 114.081 95.231,114.613 96.005,115.057 96.656 C 115.528 97.347,116.551 98.457,117.516 99.324 C 119.201 100.836,119.362 100.922,121.682 101.568 C 122.195 101.711,122.809 101.980,123.046 102.167 C 124.148 103.034,126.859 103.350,132.833 103.307 L 136.417 103.281 131.591 103.130 L 126.765 102.980 125.143 102.070 C 123.624 101.217,123.155 101.063,121.119 100.747 C 120.440 100.642,120.018 100.293,117.265 97.556 C 116.158 96.457,115.673 95.845,115.531 95.371 C 115.423 95.009,115.112 94.434,114.840 94.092 C 113.135 91.947,113.171 87.902,114.900 87.342 C 116.277 86.897,117.767 86.677,119.667 86.640 C 120.813 86.618,122.087 86.551,122.500 86.491 C 123.503 86.347,118.321 86.353,116.417 86.498 M86.500 94.833 L 80.917 94.923 86.369 94.962 C 94.165 95.016,93.687 94.766,94.535 99.250 C 95.319 103.400,95.217 103.352,103.160 103.296 L 108.417 103.259 103.147 103.171 L 97.878 103.083 97.350 102.567 C 96.362 101.600,95.364 99.083,95.078 96.833 C 94.864 95.148,94.383 94.656,93.000 94.709 C 92.496 94.728,89.571 94.784,86.500 94.833 M230.833 94.833 L 225.250 94.923 230.750 94.967 C 235.991 95.008,236.293 95.028,237.167 95.380 L 238.083 95.750 238.443 97.250 C 238.641 98.075,238.933 99.478,239.093 100.368 C 239.606 103.231,239.947 103.349,247.493 103.296 L 252.750 103.259 247.480 103.171 L 242.211 103.083 241.683 102.567 C 240.695 101.600,239.697 99.083,239.411 96.833 C 239.197 95.148,238.717 94.656,237.333 94.709 C 236.829 94.728,233.904 94.784,230.833 94.833 " stroke="none" fill="#e49c84" fill-rule="evenodd"></path><path id="path4" d="M17.106 17.106 L 16.667 17.545 16.667 75.244 L 16.667 132.942 17.052 133.304 L 17.438 133.667 200.023 133.667 L 382.609 133.667 382.971 133.281 L 383.333 132.895 383.333 75.220 L 383.333 17.545 382.894 17.106 L 382.455 16.667 200.000 16.667 L 17.545 16.667 17.106 17.106 M382.695 17.276 C 383.080 17.624,383.184 132.749,382.800 133.133 C 382.508 133.425,17.492 133.425,17.200 133.133 C 16.842 132.775,16.917 17.701,17.276 17.305 C 17.685 16.853,382.196 16.824,382.695 17.276 M78.439 57.338 C 76.871 57.808,76.331 58.631,75.748 61.443 C 75.437 62.944,75.250 63.485,74.929 63.820 C 74.413 64.359,74.150 65.098,73.677 67.333 C 73.384 68.716,73.208 69.188,72.840 69.583 C 72.168 70.304,72.038 70.624,71.752 72.273 C 71.420 74.184,71.211 74.823,70.750 75.333 C 70.157 75.990,70.008 76.386,69.587 78.418 C 69.313 79.736,69.065 80.492,68.782 80.870 C 68.102 81.778,67.887 82.338,67.517 84.158 C 67.300 85.223,67.041 86.032,66.850 86.241 C 66.300 86.843,65.818 87.994,65.568 89.306 C 65.181 91.327,65.005 91.846,64.489 92.488 C 64.178 92.875,63.912 93.506,63.742 94.253 C 63.134 96.941,62.942 97.527,62.481 98.108 C 61.133 99.804,60.987 102.628,62.213 103.283 C 63.413 103.924,75.335 103.752,75.974 103.085 C 76.235 102.813,76.222 102.811,75.750 103.046 C 75.127 103.356,65.987 103.452,64.000 103.169 C 61.835 102.861,61.415 101.945,62.640 100.197 C 62.980 99.711,63.282 98.836,63.840 96.715 C 64.038 95.962,64.417 95.003,64.684 94.583 C 64.989 94.102,65.376 93.008,65.732 91.617 C 66.101 90.180,66.478 89.123,66.817 88.578 C 67.138 88.062,67.493 87.095,67.746 86.048 C 67.987 85.053,68.460 83.747,68.891 82.885 C 69.294 82.077,69.714 80.967,69.823 80.417 C 70.122 78.917,70.488 77.875,71.018 77.019 C 71.288 76.584,71.676 75.512,71.914 74.550 C 72.374 72.685,72.552 72.209,73.119 71.326 C 73.328 71.002,73.725 69.850,74.002 68.768 C 74.518 66.756,74.655 66.399,75.198 65.661 C 75.369 65.429,75.769 64.237,76.086 63.013 C 76.403 61.789,76.809 60.554,76.989 60.269 C 77.168 59.983,77.458 59.450,77.634 59.083 C 77.811 58.717,78.158 58.229,78.407 58.000 L 78.860 57.583 85.972 57.500 C 89.883 57.454,92.896 57.361,92.667 57.294 C 92.084 57.122,79.024 57.163,78.439 57.338 M124.750 57.331 C 123.395 57.511,122.695 57.786,121.985 58.418 C 121.565 58.792,121.031 59.038,120.195 59.243 C 119.200 59.487,118.841 59.677,118.030 60.393 C 117.495 60.864,116.721 61.483,116.308 61.767 C 115.775 62.136,115.401 62.592,115.011 63.351 C 114.710 63.937,114.250 64.642,113.989 64.917 C 112.295 66.704,112.366 75.414,114.081 76.196 C 114.279 76.286,114.678 76.839,114.967 77.425 C 115.385 78.274,115.629 78.559,116.174 78.837 C 116.612 79.061,116.917 79.358,117.024 79.665 C 117.226 80.244,117.656 80.543,118.933 80.992 C 119.474 81.182,120.162 81.585,120.492 81.906 C 121.223 82.616,121.598 82.760,123.528 83.070 C 124.769 83.270,125.133 83.397,125.451 83.740 C 126.222 84.572,127.682 84.994,129.822 85.006 C 131.500 85.015,132.977 85.385,133.398 85.901 C 133.620 86.174,134.363 86.573,135.417 86.985 L 137.083 87.636 137.387 88.526 C 138.009 90.353,137.621 92.046,136.536 92.245 C 135.862 92.368,134.704 92.982,133.922 93.630 C 133.478 93.997,133.315 94.031,132.339 93.959 C 131.253 93.878,131.252 93.878,131.833 94.125 C 132.917 94.584,134.911 94.256,135.674 93.493 C 135.847 93.320,136.352 92.994,136.796 92.769 C 137.837 92.242,137.949 92.092,138.322 90.748 L 138.633 89.627 138.235 88.772 C 138.016 88.301,137.836 87.835,137.835 87.734 C 137.832 87.426,137.292 87.044,136.365 86.693 C 135.878 86.509,135.241 86.176,134.948 85.954 C 133.856 85.123,133.330 84.966,130.862 84.731 C 128.389 84.495,128.227 84.447,126.145 83.319 C 125.812 83.139,124.950 82.881,124.228 82.747 C 122.212 82.371,122.192 82.363,121.448 81.683 C 121.038 81.307,120.303 80.881,119.667 80.651 C 118.129 80.095,115.987 77.983,115.030 76.079 C 114.662 75.348,114.169 74.375,113.933 73.917 C 113.111 72.320,113.258 67.884,114.174 66.628 C 114.356 66.377,114.757 65.622,115.063 64.949 C 115.618 63.733,117.663 61.333,118.146 61.333 C 118.258 61.333,118.687 61.001,119.099 60.594 C 119.735 59.967,120.101 59.776,121.500 59.342 C 122.407 59.060,123.196 58.754,123.253 58.662 C 123.842 57.708,126.209 57.448,133.387 57.545 C 139.463 57.628,140.326 57.721,141.469 58.414 C 141.878 58.662,141.874 58.649,141.417 58.261 C 140.295 57.310,140.021 57.278,132.583 57.236 C 128.825 57.215,125.300 57.258,124.750 57.331 M159.053 57.436 C 157.933 57.988,158.000 56.520,158.000 80.408 C 158.000 104.249,157.928 102.681,159.044 103.287 C 160.213 103.922,172.319 103.755,172.974 103.095 C 173.231 102.836,173.208 102.835,172.619 103.080 C 172.077 103.306,171.146 103.336,166.028 103.296 C 159.633 103.247,159.571 103.238,158.880 102.346 C 158.723 102.143,158.676 97.180,158.672 80.384 L 158.667 58.685 159.042 58.251 C 159.621 57.579,160.329 57.508,166.550 57.504 C 171.519 57.501,172.423 57.538,172.860 57.764 C 173.164 57.921,173.321 57.948,173.248 57.830 C 172.804 57.112,160.409 56.767,159.053 57.436 M187.886 57.492 C 186.991 58.037,187.000 57.952,187.000 65.802 C 187.000 72.410,186.973 73.148,186.724 73.355 C 186.507 73.535,185.216 73.601,180.599 73.668 C 176.506 73.727,175.032 73.795,175.688 73.893 C 177.549 74.171,186.538 73.956,187.049 73.621 L 187.500 73.326 187.500 66.005 L 187.500 58.685 187.880 58.244 C 188.444 57.588,189.147 57.517,195.417 57.488 C 198.903 57.472,200.827 57.409,200.417 57.324 C 198.861 57.002,188.460 57.141,187.886 57.492 M222.772 57.338 C 221.204 57.808,220.654 58.647,220.071 61.461 C 219.763 62.946,219.574 63.495,219.258 63.825 C 218.743 64.363,218.421 65.265,217.988 67.394 C 217.699 68.808,217.561 69.160,217.083 69.689 C 216.514 70.319,216.271 70.955,216.072 72.333 C 215.880 73.667,215.472 74.907,215.085 75.333 C 214.488 75.992,214.329 76.410,213.910 78.434 C 213.639 79.738,213.388 80.505,213.111 80.876 C 212.436 81.778,212.219 82.341,211.850 84.158 C 211.634 85.223,211.375 86.032,211.183 86.241 C 210.633 86.843,210.152 87.994,209.901 89.306 C 209.514 91.327,209.339 91.846,208.823 92.488 C 208.512 92.875,208.245 93.506,208.076 94.253 C 207.477 96.899,207.269 97.551,206.877 98.016 C 205.820 99.273,205.326 102.086,206.021 102.894 C 206.958 103.983,220.500 103.996,220.500 102.908 C 220.500 102.862,220.294 102.930,220.042 103.060 C 219.462 103.357,210.255 103.442,208.333 103.169 C 206.166 102.860,205.744 101.931,206.980 100.195 C 207.156 99.948,207.457 99.203,207.650 98.540 C 207.842 97.876,208.148 96.822,208.329 96.196 C 208.510 95.570,208.848 94.779,209.080 94.437 C 209.334 94.063,209.727 92.937,210.066 91.614 C 210.424 90.217,210.817 89.110,211.141 88.582 C 211.444 88.088,211.827 87.040,212.086 86.000 C 212.335 84.999,212.774 83.788,213.112 83.170 C 213.455 82.542,213.908 81.286,214.194 80.170 C 214.464 79.114,214.805 78.025,214.952 77.750 C 215.743 76.270,215.998 75.641,216.237 74.583 C 216.573 73.100,216.953 72.073,217.441 71.331 C 217.653 71.008,218.050 69.865,218.323 68.790 C 218.830 66.795,218.979 66.412,219.541 65.648 C 219.717 65.409,220.078 64.336,220.344 63.264 C 220.609 62.192,220.980 61.000,221.168 60.616 C 221.973 58.971,222.322 58.393,222.745 58.000 L 223.193 57.583 230.305 57.500 C 234.216 57.454,237.164 57.360,236.854 57.292 C 236.078 57.119,223.363 57.161,222.772 57.338 M280.271 57.412 C 279.916 57.538,279.372 57.887,279.062 58.187 L 278.500 58.732 278.500 80.382 L 278.500 102.033 279.042 102.541 C 280.131 103.563,280.232 103.579,286.167 103.631 C 290.212 103.667,291.767 103.624,292.309 103.464 C 292.926 103.282,292.207 103.259,287.482 103.307 C 281.523 103.369,281.030 103.318,280.273 102.561 L 279.833 102.121 279.833 80.416 C 279.833 59.089,279.839 58.704,280.161 58.295 C 280.777 57.512,281.042 57.484,287.312 57.535 C 292.014 57.574,293.097 57.543,292.720 57.383 C 292.002 57.076,281.142 57.101,280.271 57.412 M300.422 57.411 C 298.839 57.836,298.833 57.856,298.833 62.806 C 298.833 68.875,298.180 68.386,306.433 68.500 C 311.193 68.566,312.507 68.631,312.725 68.812 C 312.977 69.022,313.000 70.405,313.000 85.529 C 313.000 103.818,312.929 102.687,314.118 103.259 C 315.443 103.897,326.936 103.806,327.710 103.152 C 328.080 102.839,328.077 102.839,327.354 103.085 C 325.248 103.802,315.540 103.354,314.440 102.488 L 314.000 102.142 314.000 85.575 L 314.000 69.007 313.340 68.670 C 312.719 68.353,312.369 68.333,307.418 68.333 C 299.688 68.333,300.167 68.696,300.167 62.833 C 300.167 58.615,300.172 58.553,300.542 58.207 C 301.302 57.494,301.114 57.501,321.553 57.481 C 332.427 57.470,340.951 57.400,340.583 57.324 C 339.370 57.073,301.375 57.156,300.422 57.411 M143.333 59.333 C 143.903 59.516,144.341 59.516,143.917 59.333 C 143.733 59.255,143.433 59.192,143.250 59.195 C 142.982 59.199,142.998 59.226,143.333 59.333 M129.833 66.324 C 129.542 66.424,129.899 66.472,131.017 66.483 C 132.869 66.503,133.548 66.690,133.804 67.252 C 133.905 67.473,134.273 67.835,134.621 68.055 C 135.472 68.592,135.608 68.781,135.843 69.752 C 136.491 72.425,136.889 72.584,142.966 72.582 C 148.642 72.581,149.486 72.493,150.221 71.825 L 150.750 71.344 149.858 71.678 C 148.648 72.131,146.409 72.324,142.333 72.328 C 138.436 72.333,138.031 72.223,137.573 71.038 C 136.120 67.284,132.851 65.292,129.833 66.324 M334.639 68.328 C 332.102 68.377,329.990 68.454,329.944 68.500 C 329.802 68.642,340.193 68.490,340.823 68.341 C 341.329 68.221,341.256 68.203,340.333 68.220 C 339.737 68.231,337.175 68.279,334.639 68.328 M128.694 71.582 C 128.751 71.640,129.690 71.830,130.780 72.005 C 132.842 72.336,133.923 72.644,134.543 73.078 C 135.173 73.519,135.252 73.356,134.663 72.830 C 134.000 72.238,132.887 71.874,131.353 71.747 C 130.746 71.696,129.876 71.615,129.420 71.567 C 128.963 71.518,128.636 71.525,128.694 71.582 M86.004 73.042 C 86.081 73.340,86.228 74.101,86.331 74.734 C 86.524 75.925,86.825 76.676,87.336 77.250 C 87.665 77.619,88.039 78.944,88.336 80.794 C 88.444 81.460,88.701 82.341,88.909 82.751 L 89.287 83.497 88.685 83.688 C 87.834 83.958,83.959 84.076,83.316 83.852 C 82.855 83.692,82.820 83.700,83.010 83.928 C 83.372 84.365,89.534 84.207,89.992 83.749 C 90.390 83.350,90.190 82.439,89.350 80.833 C 89.086 80.329,88.673 79.062,88.431 78.018 C 88.130 76.722,87.715 75.547,87.120 74.313 C 86.266 72.539,85.712 71.908,86.004 73.042 M230.338 73.042 C 230.414 73.340,230.561 74.100,230.664 74.731 C 230.855 75.908,231.281 76.944,231.726 77.314 C 231.962 77.509,232.141 78.182,232.750 81.168 C 232.890 81.857,233.151 82.660,233.330 82.954 L 233.654 83.488 233.035 83.683 C 232.169 83.957,228.297 84.078,227.649 83.852 C 227.188 83.692,227.154 83.700,227.343 83.928 C 227.705 84.365,233.868 84.207,234.324 83.750 C 234.696 83.376,234.451 82.069,233.840 81.167 C 233.420 80.546,233.215 79.940,232.745 77.931 C 232.304 76.046,230.770 72.510,230.391 72.503 C 230.255 72.501,230.240 72.662,230.338 73.042 M135.333 73.389 C 135.333 73.578,136.683 73.848,138.375 73.998 C 139.315 74.081,140.421 74.265,140.833 74.406 C 141.487 74.631,141.541 74.632,141.258 74.414 C 140.757 74.029,139.904 73.828,138.083 73.666 C 137.167 73.584,136.173 73.466,135.875 73.404 C 135.577 73.342,135.333 73.336,135.333 73.389 M142.714 75.571 C 142.992 75.781,145.334 76.222,145.466 76.090 C 145.499 76.056,145.089 75.946,144.555 75.845 C 144.021 75.743,143.321 75.590,143.000 75.504 C 142.495 75.369,142.457 75.378,142.714 75.571 M255.700 80.112 C 254.717 80.596,254.667 80.861,254.667 85.500 C 254.667 90.101,254.727 90.431,255.661 90.914 C 256.172 91.178,271.397 91.280,272.301 91.025 C 272.513 90.965,269.175 90.917,264.885 90.917 C 256.562 90.917,256.454 90.909,255.776 90.231 L 255.333 89.788 255.333 85.544 L 255.333 81.300 255.900 80.733 L 256.467 80.167 264.525 80.150 C 268.957 80.141,272.396 80.073,272.167 80.000 C 271.272 79.713,256.302 79.815,255.700 80.112 M175.500 84.814 C 175.179 84.882,177.511 84.971,180.683 85.011 C 185.242 85.068,186.507 85.131,186.724 85.312 C 186.974 85.519,187.000 86.331,187.000 93.948 C 187.000 102.941,186.987 102.806,187.880 103.284 C 188.732 103.741,200.878 103.823,200.424 103.368 C 200.369 103.313,198.207 103.286,195.620 103.308 C 190.009 103.356,188.670 103.226,187.981 102.565 L 187.500 102.104 187.500 93.738 L 187.500 85.372 187.042 85.068 C 186.550 84.742,176.849 84.529,175.500 84.814 M114.583 86.182 C 111.729 86.444,111.283 86.757,111.112 88.616 C 110.966 90.212,111.340 91.901,111.987 92.573 C 112.331 92.930,112.585 93.479,112.830 94.400 C 113.268 96.039,113.346 96.183,114.132 96.806 C 114.482 97.083,114.946 97.654,115.162 98.075 C 115.425 98.586,115.778 98.962,116.228 99.211 C 116.599 99.416,117.100 99.875,117.341 100.232 C 117.870 101.011,118.268 101.235,119.583 101.491 C 120.762 101.720,121.500 101.986,121.500 102.180 C 121.500 102.437,122.907 103.132,123.804 103.318 C 126.332 103.842,139.050 103.669,140.691 103.088 C 141.420 102.830,142.268 102.167,141.869 102.167 C 141.769 102.167,141.641 102.240,141.586 102.329 C 140.672 103.808,124.958 103.671,123.046 102.167 C 122.809 101.980,122.195 101.711,121.682 101.568 C 119.362 100.922,119.201 100.836,117.516 99.324 C 116.551 98.457,115.528 97.347,115.057 96.656 C 114.613 96.005,114.081 95.231,113.875 94.936 C 113.668 94.642,113.313 93.729,113.085 92.909 C 112.857 92.088,112.546 91.027,112.395 90.551 C 111.307 87.137,112.940 86.385,121.583 86.318 C 123.646 86.302,124.375 86.252,123.917 86.157 C 123.073 85.983,116.572 86.000,114.583 86.182 M129.167 92.619 C 129.304 92.671,129.623 92.817,129.875 92.944 C 130.127 93.071,130.333 93.138,130.333 93.092 C 130.333 92.961,129.374 92.499,129.133 92.513 C 128.988 92.522,128.999 92.557,129.167 92.619 M79.667 95.120 C 78.362 95.354,79.662 95.412,85.293 95.369 C 92.077 95.318,92.432 95.356,92.593 96.146 C 92.824 97.283,93.070 97.984,93.509 98.758 C 93.801 99.273,94.063 100.080,94.185 100.841 C 94.632 103.637,94.399 103.553,102.004 103.636 C 107.339 103.694,108.172 103.669,108.738 103.432 C 109.512 103.109,109.459 102.939,108.657 103.170 C 108.338 103.261,105.831 103.333,102.994 103.333 C 95.229 103.333,95.314 103.375,94.535 99.250 C 93.679 94.724,94.221 94.991,85.952 95.023 C 82.724 95.035,79.896 95.079,79.667 95.120 M223.971 95.118 C 223.725 95.156,223.425 95.307,223.304 95.454 C 223.107 95.692,223.123 95.700,223.447 95.527 C 223.954 95.257,235.810 95.254,236.402 95.524 C 236.728 95.672,236.861 95.912,237.008 96.621 C 237.111 97.120,237.451 98.009,237.763 98.596 C 238.119 99.268,238.402 100.114,238.523 100.874 C 238.964 103.631,238.744 103.553,246.338 103.636 C 251.672 103.694,252.506 103.669,253.072 103.432 C 253.845 103.109,253.793 102.939,252.990 103.170 C 252.672 103.261,250.164 103.333,247.328 103.333 C 239.956 103.333,239.602 103.206,239.093 100.368 C 238.933 99.478,238.641 98.075,238.443 97.250 L 238.083 95.750 237.167 95.380 C 236.297 95.029,225.900 94.823,223.971 95.118 M143.623 101.327 C 143.278 101.393,142.950 101.494,142.894 101.550 C 142.766 101.678,143.967 101.496,144.417 101.319 C 144.825 101.158,144.473 101.162,143.623 101.327 " stroke="none" fill="#fcd4ac" fill-rule="evenodd"></path></g></svg>